<mxfile host="app.diagrams.net" agent="Mozilla/5.0 (Macintosh; Intel Mac OS X 10.15; rv:131.0) Gecko/20100101 Firefox/131.0" version="24.8.3">
  <diagram name="Page-1" id="MzmFJHL5Dk_WxmZsI8PG">
    <mxGraphModel dx="1632" dy="1045" grid="0" gridSize="10" guides="1" tooltips="1" connect="1" arrows="1" fold="1" page="1" pageScale="1" pageWidth="1169" pageHeight="827" math="0" shadow="0">
      <root>
        <mxCell id="0" />
        <mxCell id="1" parent="0" />
        <mxCell id="TTf0YCJdVsnhQP7W34WI-1" value="User rolls dice " style="rounded=1;whiteSpace=wrap;html=1;fillColor=#f8cecc;strokeColor=#b85450;" vertex="1" parent="1">
          <mxGeometry x="38" y="40" width="100" height="50" as="geometry" />
        </mxCell>
        <mxCell id="TTf0YCJdVsnhQP7W34WI-2" value="User rolls dice " style="rounded=1;whiteSpace=wrap;html=1;fillColor=#f8cecc;strokeColor=#b85450;" vertex="1" parent="1">
          <mxGeometry x="40" y="230" width="100" height="50" as="geometry" />
        </mxCell>
        <mxCell id="TTf0YCJdVsnhQP7W34WI-3" value="User rolls dice " style="rounded=1;whiteSpace=wrap;html=1;fillColor=#f8cecc;strokeColor=#b85450;" vertex="1" parent="1">
          <mxGeometry x="50" y="600" width="100" height="50" as="geometry" />
        </mxCell>
        <mxCell id="TTf0YCJdVsnhQP7W34WI-5" value="" style="shape=flexArrow;endArrow=classic;html=1;rounded=0;fillColor=#dae8fc;strokeColor=#6c8ebf;endSize=4;startSize=3;" edge="1" parent="1">
          <mxGeometry width="50" height="50" relative="1" as="geometry">
            <mxPoint x="138" y="68" as="sourcePoint" />
            <mxPoint x="197" y="68" as="targetPoint" />
          </mxGeometry>
        </mxCell>
        <mxCell id="TTf0YCJdVsnhQP7W34WI-6" value="" style="shape=flexArrow;endArrow=classic;html=1;rounded=0;fillColor=#dae8fc;strokeColor=#6c8ebf;" edge="1" parent="1">
          <mxGeometry width="50" height="50" relative="1" as="geometry">
            <mxPoint x="140" y="257.5" as="sourcePoint" />
            <mxPoint x="200" y="258" as="targetPoint" />
          </mxGeometry>
        </mxCell>
        <mxCell id="TTf0YCJdVsnhQP7W34WI-7" value="" style="shape=flexArrow;endArrow=classic;html=1;rounded=0;fillColor=#dae8fc;strokeColor=#6c8ebf;" edge="1" parent="1">
          <mxGeometry width="50" height="50" relative="1" as="geometry">
            <mxPoint x="151" y="624.5" as="sourcePoint" />
            <mxPoint x="210" y="625" as="targetPoint" />
          </mxGeometry>
        </mxCell>
        <mxCell id="TTf0YCJdVsnhQP7W34WI-8" value="Generate Random" style="rounded=1;whiteSpace=wrap;html=1;fillColor=#d5e8d4;strokeColor=#82b366;" vertex="1" parent="1">
          <mxGeometry x="210" y="40" width="120" height="60" as="geometry" />
        </mxCell>
      </root>
    </mxGraphModel>
  </diagram>
</mxfile>
